<svg xmlns="http://www.w3.org/2000/svg" viewBox="0 0 560 150" role="img" aria-labelledby="title desc">
  <title id="title">J. Iglesias</title>
  <desc id="desc">Logotipo premium J. Iglesias com assinatura automóvel minimalista</desc>
  <defs>
    <linearGradient id="road" x1="38" y1="96" x2="196" y2="35" gradientUnits="userSpaceOnUse">
      <stop offset="0" stop-color="#ff2f2f"/>
      <stop offset=".55" stop-color="#ffffff"/>
      <stop offset="1" stop-color="#6fc3ff"/>
    </linearGradient>
    <linearGradient id="word" x1="220" y1="52" x2="524" y2="52" gradientUnits="userSpaceOnUse">
      <stop offset="0" stop-color="#ffffff"/>
      <stop offset=".7" stop-color="#f4f7fb"/>
      <stop offset="1" stop-color="#aeb7c4"/>
    </linearGradient>
    <filter id="aura" x="-20%" y="-50%" width="140%" height="200%">
      <feDropShadow dx="0" dy="0" stdDeviation="4" flood-color="#ff2f2f" flood-opacity=".28"/>
    </filter>
  </defs>

  <g filter="url(#aura)">
    <path d="M36 101C70 59 113 39 164 41c22 1 42 7 60 17" fill="none" stroke="url(#road)" stroke-width="9" stroke-linecap="round"/>
    <path d="M61 105c28-30 61-45 99-45 21 0 40 5 58 16" fill="none" stroke="#ffffff" stroke-width="3" stroke-linecap="round" opacity=".62"/>
    <path d="M111 116 143 35" stroke="#ffffff" stroke-width="8" stroke-linecap="round"/>
    <path d="M160 116V46" stroke="#ffffff" stroke-width="8" stroke-linecap="round"/>
    <path d="M110 116h55" stroke="#ff2f2f" stroke-width="7" stroke-linecap="round"/>
  </g>

  <g>
    <text x="226" y="75" font-family="Inter, Arial, sans-serif" font-size="45" font-weight="700" fill="url(#word)" letter-spacing="8">JIGLESIAS</text>
    <text x="230" y="105" font-family="Inter, Arial, sans-serif" font-size="11" font-weight="800" fill="#aeb7c4" letter-spacing="5.8">AUTOMOTIVE EXPERIENCE</text>
    <path d="M230 120h226" stroke="#ff2f2f" stroke-width="3" stroke-linecap="round"/>
    <path d="M470 120h36" stroke="#ffffff" stroke-width="3" stroke-linecap="round" opacity=".7"/>
  </g>
</svg>
